<svg width="40" height="40" viewBox="0 0 40 40" fill="none" xmlns="http://www.w3.org/2000/svg">
<path d="M26.6667 13.3333C29.3188 13.3333 31.8624 14.3869 33.7377 16.2622C35.6131 18.1376 36.6667 20.6811 36.6667 23.3333V35H30V23.3333C30 22.4493 29.6488 21.6014 29.0237 20.9763C28.3986 20.3512 27.5507 20 26.6667 20C25.7826 20 24.9348 20.3512 24.3097 20.9763C23.6845 21.6014 23.3333 22.4493 23.3333 23.3333V35H16.6667V23.3333C16.6667 20.6811 17.7202 18.1376 19.5956 16.2622C21.471 14.3869 24.0145 13.3333 26.6667 13.3333Z" stroke="#1E1E1E" stroke-width="3.5" stroke-linecap="round" stroke-linejoin="round"/>
<path d="M10 15H3.33334V35H10V15Z" stroke="#1E1E1E" stroke-width="3.5" stroke-linecap="round" stroke-linejoin="round"/>
<path d="M6.66668 9.99998C8.50763 9.99998 10 8.5076 10 6.66665C10 4.8257 8.50763 3.33331 6.66668 3.33331C4.82573 3.33331 3.33334 4.8257 3.33334 6.66665C3.33334 8.5076 4.82573 9.99998 6.66668 9.99998Z" stroke="#1E1E1E" stroke-width="3.5" stroke-linecap="round" stroke-linejoin="round"/>
</svg>
